<svg width="40" height="65" viewBox="0 0 40 65" fill="none" xmlns="http://www.w3.org/2000/svg">
<g filter="url(#filter0_f_815_33105)">
<ellipse cx="19.6923" cy="58.5725" rx="6.7294" ry="3.73855" fill="black" fill-opacity="0.12"/>
</g>
<mask id="path-2-outside-1_815_33105" maskUnits="userSpaceOnUse" x="0" y="0" width="40" height="59" fill="black">
<rect fill="white" width="40" height="59"/>
<path fill-rule="evenodd" clip-rule="evenodd" d="M19.6942 38.3855C19.6937 38.3855 19.6933 38.3855 19.6928 38.3855H19.6925V57.8264C18.8666 57.8264 18.1971 57.1568 18.1971 56.3309C18.1971 45.9057 12.3648 39.5181 7.99806 34.7357C6.73572 33.3532 5.59585 32.1048 4.75478 30.9318C2.39749 27.8037 1 23.9114 1 19.6928C1 9.36904 9.36904 1 19.6928 1C30.0165 1 38.3855 9.36904 38.3855 19.6928C38.3855 23.9011 36.9949 27.7845 34.6481 30.9088H34.6484C33.8058 32.0885 32.6593 33.3441 31.3887 34.7357C27.0219 39.5181 21.1896 45.9057 21.1896 56.3309C21.1896 57.1568 20.5201 57.8264 19.6942 57.8264V38.3855Z"/>
</mask>
<path fill-rule="evenodd" clip-rule="evenodd" d="M19.6942 38.3855C19.6937 38.3855 19.6933 38.3855 19.6928 38.3855H19.6925V57.8264C18.8666 57.8264 18.1971 57.1568 18.1971 56.3309C18.1971 45.9057 12.3648 39.5181 7.99806 34.7357C6.73572 33.3532 5.59585 32.1048 4.75478 30.9318C2.39749 27.8037 1 23.9114 1 19.6928C1 9.36904 9.36904 1 19.6928 1C30.0165 1 38.3855 9.36904 38.3855 19.6928C38.3855 23.9011 36.9949 27.7845 34.6481 30.9088H34.6484C33.8058 32.0885 32.6593 33.3441 31.3887 34.7357C27.0219 39.5181 21.1896 45.9057 21.1896 56.3309C21.1896 57.1568 20.5201 57.8264 19.6942 57.8264V38.3855Z" fill="#03313A"/>
<path d="M19.6942 38.3855H20.6942V37.3855H19.6942V38.3855ZM19.6925 38.3855V37.3855H18.6925V38.3855H19.6925ZM19.6925 57.8264V58.8264H20.6925V57.8264H19.6925ZM7.99806 34.7357L7.25958 35.41L7.99806 34.7357ZM4.75478 30.9318L5.56745 30.3491L5.56054 30.3395L5.5534 30.33L4.75478 30.9318ZM34.6481 30.9088L33.8486 30.3082L32.6462 31.9088H34.6481V30.9088ZM34.6484 30.9088L35.4622 31.49L36.5916 29.9088H34.6484V30.9088ZM31.3887 34.7357L32.1271 35.41L31.3887 34.7357ZM19.6942 57.8264H18.6942V58.8264H19.6942V57.8264ZM19.6928 39.3855H19.6928C19.6928 39.3855 19.6928 39.3855 19.6928 39.3855H19.6928C19.6928 39.3855 19.6928 39.3855 19.6928 39.3855H19.6928C19.6928 39.3855 19.6928 39.3855 19.6928 39.3855H19.6928C19.6928 39.3855 19.6928 39.3855 19.6928 39.3855H19.6928C19.6928 39.3855 19.6928 39.3855 19.6928 39.3855H19.6928C19.6928 39.3855 19.6928 39.3855 19.6928 39.3855H19.6928C19.6928 39.3855 19.6928 39.3855 19.6928 39.3855H19.6928C19.6928 39.3855 19.6928 39.3855 19.6928 39.3855H19.6928C19.6928 39.3855 19.6928 39.3855 19.6928 39.3855H19.6928C19.6928 39.3855 19.6928 39.3855 19.6928 39.3855H19.6928C19.6928 39.3855 19.6928 39.3855 19.6928 39.3855H19.6928C19.6928 39.3855 19.6928 39.3855 19.6928 39.3855H19.6928C19.6928 39.3855 19.6928 39.3855 19.6928 39.3855H19.6928C19.6929 39.3855 19.6929 39.3855 19.6929 39.3855H19.6929H19.6929C19.6929 39.3855 19.6929 39.3855 19.6929 39.3855H19.6929C19.6929 39.3855 19.6929 39.3855 19.6929 39.3855H19.6929C19.6929 39.3855 19.6929 39.3855 19.6929 39.3855H19.6929C19.6929 39.3855 19.6929 39.3855 19.6929 39.3855H19.6929C19.6929 39.3855 19.6929 39.3855 19.6929 39.3855H19.6929C19.6929 39.3855 19.6929 39.3855 19.6929 39.3855H19.6929C19.6929 39.3855 19.6929 39.3855 19.6929 39.3855H19.6929C19.6929 39.3855 19.6929 39.3855 19.6929 39.3855H19.6929C19.6929 39.3855 19.6929 39.3855 19.6929 39.3855H19.6929C19.6929 39.3855 19.6929 39.3855 19.6929 39.3855H19.6929C19.6929 39.3855 19.6929 39.3855 19.6929 39.3855H19.6929C19.6929 39.3855 19.6929 39.3855 19.6929 39.3855H19.6929C19.6929 39.3855 19.6929 39.3855 19.6929 39.3855H19.6929C19.6929 39.3855 19.6929 39.3855 19.6929 39.3855H19.6929C19.6929 39.3855 19.6929 39.3855 19.6929 39.3855C19.6929 39.3855 19.6929 39.3855 19.6929 39.3855H19.6929C19.6929 39.3855 19.6929 39.3855 19.6929 39.3855H19.6929C19.693 39.3855 19.693 39.3855 19.693 39.3855H19.693C19.693 39.3855 19.693 39.3855 19.693 39.3855H19.693C19.693 39.3855 19.693 39.3855 19.693 39.3855H19.693C19.693 39.3855 19.693 39.3855 19.693 39.3855H19.693C19.693 39.3855 19.693 39.3855 19.693 39.3855H19.693C19.693 39.3855 19.693 39.3855 19.693 39.3855H19.693C19.693 39.3855 19.693 39.3855 19.693 39.3855H19.693C19.693 39.3855 19.693 39.3855 19.693 39.3855H19.693C19.693 39.3855 19.693 39.3855 19.693 39.3855H19.693C19.693 39.3855 19.693 39.3855 19.693 39.3855H19.693C19.693 39.3855 19.693 39.3855 19.693 39.3855H19.693C19.693 39.3855 19.693 39.3855 19.693 39.3855H19.693C19.693 39.3855 19.693 39.3855 19.693 39.3855H19.693C19.693 39.3855 19.693 39.3855 19.693 39.3855C19.693 39.3855 19.693 39.3855 19.693 39.3855H19.693C19.693 39.3855 19.693 39.3855 19.693 39.3855H19.693C19.693 39.3855 19.693 39.3855 19.693 39.3855H19.693C19.693 39.3855 19.693 39.3855 19.693 39.3855H19.693C19.6931 39.3855 19.6931 39.3855 19.6931 39.3855H19.6931C19.6931 39.3855 19.6931 39.3855 19.6931 39.3855H19.6931C19.6931 39.3855 19.6931 39.3855 19.6931 39.3855H19.6931C19.6931 39.3855 19.6931 39.3855 19.6931 39.3855H19.6931C19.6931 39.3855 19.6931 39.3855 19.6931 39.3855H19.6931C19.6931 39.3855 19.6931 39.3855 19.6931 39.3855H19.6931C19.6931 39.3855 19.6931 39.3855 19.6931 39.3855H19.6931C19.6931 39.3855 19.6931 39.3855 19.6931 39.3855H19.6931C19.6931 39.3855 19.6931 39.3855 19.6931 39.3855H19.6931C19.6931 39.3855 19.6931 39.3855 19.6931 39.3855H19.6931C19.6931 39.3855 19.6931 39.3855 19.6931 39.3855H19.6931C19.6931 39.3855 19.6931 39.3855 19.6931 39.3855H19.6931H19.6931C19.6931 39.3855 19.6931 39.3855 19.6931 39.3855H19.6931C19.6931 39.3855 19.6931 39.3855 19.6931 39.3855H19.6931C19.6931 39.3855 19.6931 39.3855 19.6931 39.3855H19.6931C19.6931 39.3855 19.6931 39.3855 19.6931 39.3855H19.6931C19.6931 39.3855 19.6931 39.3855 19.6931 39.3855H19.6931C19.6931 39.3855 19.6931 39.3855 19.6932 39.3855H19.6932C19.6932 39.3855 19.6932 39.3855 19.6932 39.3855H19.6932C19.6932 39.3855 19.6932 39.3855 19.6932 39.3855H19.6932C19.6932 39.3855 19.6932 39.3855 19.6932 39.3855H19.6932C19.6932 39.3855 19.6932 39.3855 19.6932 39.3855H19.6932C19.6932 39.3855 19.6932 39.3855 19.6932 39.3855H19.6932C19.6932 39.3855 19.6932 39.3855 19.6932 39.3855H19.6932C19.6932 39.3855 19.6932 39.3855 19.6932 39.3855H19.6932C19.6932 39.3855 19.6932 39.3855 19.6932 39.3855H19.6932C19.6932 39.3855 19.6932 39.3855 19.6932 39.3855H19.6932C19.6932 39.3855 19.6932 39.3855 19.6932 39.3855C19.6932 39.3855 19.6932 39.3855 19.6932 39.3855H19.6932C19.6932 39.3855 19.6932 39.3855 19.6932 39.3855H19.6932C19.6932 39.3855 19.6932 39.3855 19.6932 39.3855H19.6932C19.6932 39.3855 19.6932 39.3855 19.6932 39.3855H19.6932C19.6932 39.3855 19.6932 39.3855 19.6932 39.3855H19.6932C19.6932 39.3855 19.6932 39.3855 19.6932 39.3855H19.6932C19.6932 39.3855 19.6932 39.3855 19.6932 39.3855H19.6932C19.6932 39.3855 19.6932 39.3855 19.6933 39.3855H19.6933C19.6933 39.3855 19.6933 39.3855 19.6933 39.3855H19.6933C19.6933 39.3855 19.6933 39.3855 19.6933 39.3855H19.6933C19.6933 39.3855 19.6933 39.3855 19.6933 39.3855H19.6933C19.6933 39.3855 19.6933 39.3855 19.6933 39.3855H19.6933C19.6933 39.3855 19.6933 39.3855 19.6933 39.3855H19.6933C19.6933 39.3855 19.6933 39.3855 19.6933 39.3855H19.6933C19.6933 39.3855 19.6933 39.3855 19.6933 39.3855H19.6933C19.6933 39.3855 19.6933 39.3855 19.6933 39.3855H19.6933C19.6933 39.3855 19.6933 39.3855 19.6933 39.3855H19.6933H19.6933C19.6933 39.3855 19.6933 39.3855 19.6933 39.3855H19.6933C19.6933 39.3855 19.6933 39.3855 19.6933 39.3855H19.6933C19.6933 39.3855 19.6933 39.3855 19.6933 39.3855H19.6933C19.6933 39.3855 19.6933 39.3855 19.6933 39.3855H19.6933C19.6933 39.3855 19.6933 39.3855 19.6933 39.3855H19.6933C19.6933 39.3855 19.6933 39.3855 19.6933 39.3855H19.6933C19.6933 39.3855 19.6933 39.3855 19.6933 39.3855H19.6933C19.6933 39.3855 19.6933 39.3855 19.6933 39.3855H19.6934C19.6934 39.3855 19.6934 39.3855 19.6934 39.3855H19.6934C19.6934 39.3855 19.6934 39.3855 19.6934 39.3855H19.6934C19.6934 39.3855 19.6934 39.3855 19.6934 39.3855H19.6934C19.6934 39.3855 19.6934 39.3855 19.6934 39.3855H19.6934C19.6934 39.3855 19.6934 39.3855 19.6934 39.3855H19.6934C19.6934 39.3855 19.6934 39.3855 19.6934 39.3855H19.6934C19.6934 39.3855 19.6934 39.3855 19.6934 39.3855H19.6934C19.6934 39.3855 19.6934 39.3855 19.6934 39.3855H19.6934C19.6934 39.3855 19.6934 39.3855 19.6934 39.3855C19.6934 39.3855 19.6934 39.3855 19.6934 39.3855H19.6934C19.6934 39.3855 19.6934 39.3855 19.6934 39.3855H19.6934C19.6934 39.3855 19.6934 39.3855 19.6934 39.3855H19.6934C19.6934 39.3855 19.6934 39.3855 19.6934 39.3855H19.6934C19.6934 39.3855 19.6934 39.3855 19.6934 39.3855H19.6934C19.6934 39.3855 19.6934 39.3855 19.6934 39.3855H19.6934C19.6934 39.3855 19.6934 39.3855 19.6934 39.3855H19.6934C19.6934 39.3855 19.6934 39.3855 19.6934 39.3855H19.6934C19.6934 39.3855 19.6934 39.3855 19.6934 39.3855H19.6935C19.6935 39.3855 19.6935 39.3855 19.6935 39.3855H19.6935C19.6935 39.3855 19.6935 39.3855 19.6935 39.3855H19.6935C19.6935 39.3855 19.6935 39.3855 19.6935 39.3855H19.6935C19.6935 39.3855 19.6935 39.3855 19.6935 39.3855H19.6935C19.6935 39.3855 19.6935 39.3855 19.6935 39.3855H19.6935C19.6935 39.3855 19.6935 39.3855 19.6935 39.3855H19.6935C19.6935 39.3855 19.6935 39.3855 19.6935 39.3855H19.6935C19.6935 39.3855 19.6935 39.3855 19.6935 39.3855H19.6935H19.6935C19.6935 39.3855 19.6935 39.3855 19.6935 39.3855H19.6935C19.6935 39.3855 19.6935 39.3855 19.6935 39.3855H19.6935C19.6935 39.3855 19.6935 39.3855 19.6935 39.3855H19.6935C19.6935 39.3855 19.6935 39.3855 19.6935 39.3855H19.6935C19.6935 39.3855 19.6935 39.3855 19.6935 39.3855H19.6935C19.6935 39.3855 19.6935 39.3855 19.6935 39.3855H19.6935C19.6935 39.3855 19.6935 39.3855 19.6935 39.3855H19.6935C19.6935 39.3855 19.6935 39.3855 19.6935 39.3855H19.6935C19.6935 39.3855 19.6935 39.3855 19.6935 39.3855H19.6936C19.6936 39.3855 19.6936 39.3855 19.6936 39.3855H19.6936C19.6936 39.3855 19.6936 39.3855 19.6936 39.3855H19.6936C19.6936 39.3855 19.6936 39.3855 19.6936 39.3855H19.6936C19.6936 39.3855 19.6936 39.3855 19.6936 39.3855H19.6936C19.6936 39.3855 19.6936 39.3855 19.6936 39.3855H19.6936C19.6936 39.3855 19.6936 39.3855 19.6936 39.3855H19.6936C19.6936 39.3855 19.6936 39.3855 19.6936 39.3855H19.6936C19.6936 39.3855 19.6936 39.3855 19.6936 39.3855C19.6936 39.3855 19.6936 39.3855 19.6936 39.3855H19.6936C19.6936 39.3855 19.6936 39.3855 19.6936 39.3855H19.6936C19.6936 39.3855 19.6936 39.3855 19.6936 39.3855H19.6936C19.6936 39.3855 19.6936 39.3855 19.6936 39.3855H19.6936C19.6936 39.3855 19.6936 39.3855 19.6936 39.3855H19.6936C19.6936 39.3855 19.6936 39.3855 19.6936 39.3855H19.6936C19.6936 39.3855 19.6936 39.3855 19.6936 39.3855H19.6936C19.6936 39.3855 19.6936 39.3855 19.6936 39.3855H19.6936C19.6936 39.3855 19.6936 39.3855 19.6936 39.3855H19.6936C19.6936 39.3855 19.6936 39.3855 19.6936 39.3855H19.6936C19.6937 39.3855 19.6937 39.3855 19.6937 39.3855H19.6937C19.6937 39.3855 19.6937 39.3855 19.6937 39.3855H19.6937C19.6937 39.3855 19.6937 39.3855 19.6937 39.3855H19.6937C19.6937 39.3855 19.6937 39.3855 19.6937 39.3855H19.6937C19.6937 39.3855 19.6937 39.3855 19.6937 39.3855H19.6937C19.6937 39.3855 19.6937 39.3855 19.6937 39.3855H19.6937C19.6937 39.3855 19.6937 39.3855 19.6937 39.3855H19.6937H19.6937C19.6937 39.3855 19.6937 39.3855 19.6937 39.3855H19.6937C19.6937 39.3855 19.6937 39.3855 19.6937 39.3855H19.6937C19.6937 39.3855 19.6937 39.3855 19.6937 39.3855H19.6937C19.6937 39.3855 19.6937 39.3855 19.6937 39.3855H19.6937C19.6937 39.3855 19.6937 39.3855 19.6937 39.3855H19.6937C19.6937 39.3855 19.6937 39.3855 19.6937 39.3855H19.6937C19.6937 39.3855 19.6937 39.3855 19.6937 39.3855H19.6937C19.6937 39.3855 19.6937 39.3855 19.6937 39.3855H19.6937C19.6937 39.3855 19.6937 39.3855 19.6937 39.3855H19.6937C19.6937 39.3855 19.6937 39.3855 19.6937 39.3855H19.6937C19.6938 39.3855 19.6938 39.3855 19.6938 39.3855H19.6938C19.6938 39.3855 19.6938 39.3855 19.6938 39.3855H19.6938C19.6938 39.3855 19.6938 39.3855 19.6938 39.3855H19.6938C19.6938 39.3855 19.6938 39.3855 19.6938 39.3855H19.6938C19.6938 39.3855 19.6938 39.3855 19.6938 39.3855H19.6938C19.6938 39.3855 19.6938 39.3855 19.6938 39.3855H19.6938C19.6938 39.3855 19.6938 39.3855 19.6938 39.3855C19.6938 39.3855 19.6938 39.3855 19.6938 39.3855H19.6938C19.6938 39.3855 19.6938 39.3855 19.6938 39.3855H19.6938C19.6938 39.3855 19.6938 39.3855 19.6938 39.3855H19.6938C19.6938 39.3855 19.6938 39.3855 19.6938 39.3855H19.6938C19.6938 39.3855 19.6938 39.3855 19.6938 39.3855H19.6938C19.6938 39.3855 19.6938 39.3855 19.6938 39.3855H19.6938C19.6938 39.3855 19.6938 39.3855 19.6938 39.3855H19.6938C19.6938 39.3855 19.6938 39.3855 19.6938 39.3855H19.6938C19.6938 39.3855 19.6938 39.3855 19.6938 39.3855H19.6938C19.6938 39.3855 19.6938 39.3855 19.6938 39.3855H19.6938C19.6938 39.3855 19.6938 39.3855 19.6938 39.3855H19.6938C19.6938 39.3855 19.6938 39.3855 19.6939 39.3855H19.6939C19.6939 39.3855 19.6939 39.3855 19.6939 39.3855H19.6939C19.6939 39.3855 19.6939 39.3855 19.6939 39.3855H19.6939C19.6939 39.3855 19.6939 39.3855 19.6939 39.3855H19.6939C19.6939 39.3855 19.6939 39.3855 19.6939 39.3855H19.6939H19.6939C19.6939 39.3855 19.6939 39.3855 19.6939 39.3855H19.6939C19.6939 39.3855 19.6939 39.3855 19.6939 39.3855H19.6939C19.6939 39.3855 19.6939 39.3855 19.6939 39.3855H19.6939C19.6939 39.3855 19.6939 39.3855 19.6939 39.3855H19.6939C19.6939 39.3855 19.6939 39.3855 19.6939 39.3855H19.6939C19.6939 39.3855 19.6939 39.3855 19.6939 39.3855H19.6939C19.6939 39.3855 19.6939 39.3855 19.6939 39.3855H19.6939C19.6939 39.3855 19.6939 39.3855 19.6939 39.3855H19.6939C19.6939 39.3855 19.6939 39.3855 19.6939 39.3855H19.6939C19.6939 39.3855 19.6939 39.3855 19.6939 39.3855H19.6939C19.6939 39.3855 19.6939 39.3855 19.6939 39.3855H19.6939C19.6939 39.3855 19.6939 39.3855 19.6939 39.3855H19.6939C19.6939 39.3855 19.6939 39.3855 19.694 39.3855H19.694C19.694 39.3855 19.694 39.3855 19.694 39.3855H19.694C19.694 39.3855 19.694 39.3855 19.694 39.3855H19.694C19.694 39.3855 19.694 39.3855 19.694 39.3855C19.694 39.3855 19.694 39.3855 19.694 39.3855H19.694C19.694 39.3855 19.694 39.3855 19.694 39.3855H19.694C19.694 39.3855 19.694 39.3855 19.694 39.3855H19.694C19.694 39.3855 19.694 39.3855 19.694 39.3855H19.694C19.694 39.3855 19.694 39.3855 19.694 39.3855H19.694C19.694 39.3855 19.694 39.3855 19.694 39.3855H19.694C19.694 39.3855 19.694 39.3855 19.694 39.3855H19.694C19.694 39.3855 19.694 39.3855 19.694 39.3855H19.694C19.694 39.3855 19.694 39.3855 19.694 39.3855H19.694C19.694 39.3855 19.694 39.3855 19.694 39.3855H19.694C19.694 39.3855 19.694 39.3855 19.694 39.3855H19.694C19.694 39.3855 19.694 39.3855 19.694 39.3855H19.694C19.694 39.3855 19.694 39.3855 19.694 39.3855H19.694C19.694 39.3855 19.694 39.3855 19.694 39.3855H19.694C19.694 39.3855 19.694 39.3855 19.694 39.3855H19.6941C19.6941 39.3855 19.6941 39.3855 19.6941 39.3855C19.6941 39.3855 19.6941 39.3855 19.6941 39.3855H19.6941C19.6941 39.3855 19.6941 39.3855 19.6941 39.3855H19.6941C19.6941 39.3855 19.6941 39.3855 19.6941 39.3855H19.6941C19.6941 39.3855 19.6941 39.3855 19.6941 39.3855H19.6941C19.6941 39.3855 19.6941 39.3855 19.6941 39.3855H19.6941C19.6941 39.3855 19.6941 39.3855 19.6941 39.3855H19.6941C19.6941 39.3855 19.6941 39.3855 19.6941 39.3855H19.6941C19.6941 39.3855 19.6941 39.3855 19.6941 39.3855H19.6941C19.6941 39.3855 19.6941 39.3855 19.6941 39.3855H19.6941C19.6941 39.3855 19.6941 39.3855 19.6941 39.3855H19.6941C19.6941 39.3855 19.6941 39.3855 19.6941 39.3855H19.6941C19.6941 39.3855 19.6941 39.3855 19.6941 39.3855H19.6941C19.6941 39.3855 19.6941 39.3855 19.6941 39.3855H19.6941C19.6941 39.3855 19.6941 39.3855 19.6941 39.3855H19.6941C19.6941 39.3855 19.6941 39.3855 19.6941 39.3855H19.6941H19.6941C19.6941 39.3855 19.6941 39.3855 19.6941 39.3855H19.6941C19.6941 39.3855 19.6941 39.3855 19.6942 39.3855H19.6942C19.6942 39.3855 19.6942 39.3855 19.6942 39.3855H19.6942C19.6942 39.3855 19.6942 39.3855 19.6942 39.3855H19.6942C19.6942 39.3855 19.6942 39.3855 19.6942 39.3855H19.6942C19.6942 39.3855 19.6942 39.3855 19.6942 39.3855H19.6942C19.6942 39.3855 19.6942 39.3855 19.6942 39.3855H19.6942C19.6942 39.3855 19.6942 39.3855 19.6942 39.3855H19.6942C19.6942 39.3855 19.6942 39.3855 19.6942 39.3855H19.6942C19.6942 39.3855 19.6942 39.3855 19.6942 39.3855H19.6942C19.6942 39.3855 19.6942 39.3855 19.6942 39.3855H19.6942C19.6942 39.3855 19.6942 39.3855 19.6942 39.3855H19.6942C19.6942 39.3855 19.6942 39.3855 19.6942 39.3855H19.6942C19.6942 39.3855 19.6942 39.3855 19.6942 39.3855H19.6942V37.3855H19.6942C19.6942 37.3855 19.6942 37.3855 19.6942 37.3855H19.6942C19.6942 37.3855 19.6942 37.3855 19.6942 37.3855H19.6942C19.6942 37.3855 19.6942 37.3855 19.6942 37.3855H19.6942C19.6942 37.3855 19.6942 37.3855 19.6942 37.3855H19.6942C19.6942 37.3855 19.6942 37.3855 19.6942 37.3855H19.6942C19.6942 37.3855 19.6942 37.3855 19.6942 37.3855H19.6942C19.6942 37.3855 19.6942 37.3855 19.6942 37.3855H19.6942C19.6942 37.3855 19.6942 37.3855 19.6942 37.3855H19.6942C19.6942 37.3855 19.6942 37.3855 19.6942 37.3855H19.6942C19.6942 37.3855 19.6942 37.3855 19.6942 37.3855H19.6942C19.6942 37.3855 19.6942 37.3855 19.6942 37.3855H19.6942C19.6942 37.3855 19.6942 37.3855 19.6942 37.3855H19.6942C19.6941 37.3855 19.6941 37.3855 19.6941 37.3855H19.6941C19.6941 37.3855 19.6941 37.3855 19.6941 37.3855H19.6941H19.6941C19.6941 37.3855 19.6941 37.3855 19.6941 37.3855H19.6941C19.6941 37.3855 19.6941 37.3855 19.6941 37.3855H19.6941C19.6941 37.3855 19.6941 37.3855 19.6941 37.3855H19.6941C19.6941 37.3855 19.6941 37.3855 19.6941 37.3855H19.6941C19.6941 37.3855 19.6941 37.3855 19.6941 37.3855H19.6941C19.6941 37.3855 19.6941 37.3855 19.6941 37.3855H19.6941C19.6941 37.3855 19.6941 37.3855 19.6941 37.3855H19.6941C19.6941 37.3855 19.6941 37.3855 19.6941 37.3855H19.6941C19.6941 37.3855 19.6941 37.3855 19.6941 37.3855H19.6941C19.6941 37.3855 19.6941 37.3855 19.6941 37.3855H19.6941C19.6941 37.3855 19.6941 37.3855 19.6941 37.3855H19.6941C19.6941 37.3855 19.6941 37.3855 19.6941 37.3855H19.6941C19.6941 37.3855 19.6941 37.3855 19.6941 37.3855H19.6941C19.6941 37.3855 19.6941 37.3855 19.6941 37.3855H19.6941C19.6941 37.3855 19.6941 37.3855 19.6941 37.3855C19.6941 37.3855 19.6941 37.3855 19.6941 37.3855H19.694C19.694 37.3855 19.694 37.3855 19.694 37.3855H19.694C19.694 37.3855 19.694 37.3855 19.694 37.3855H19.694C19.694 37.3855 19.694 37.3855 19.694 37.3855H19.694C19.694 37.3855 19.694 37.3855 19.694 37.3855H19.694C19.694 37.3855 19.694 37.3855 19.694 37.3855H19.694C19.694 37.3855 19.694 37.3855 19.694 37.3855H19.694C19.694 37.3855 19.694 37.3855 19.694 37.3855H19.694C19.694 37.3855 19.694 37.3855 19.694 37.3855H19.694C19.694 37.3855 19.694 37.3855 19.694 37.3855H19.694C19.694 37.3855 19.694 37.3855 19.694 37.3855H19.694C19.694 37.3855 19.694 37.3855 19.694 37.3855H19.694C19.694 37.3855 19.694 37.3855 19.694 37.3855H19.694C19.694 37.3855 19.694 37.3855 19.694 37.3855H19.694C19.694 37.3855 19.694 37.3855 19.694 37.3855H19.694C19.694 37.3855 19.694 37.3855 19.694 37.3855C19.694 37.3855 19.694 37.3855 19.694 37.3855H19.694C19.694 37.3855 19.694 37.3855 19.694 37.3855H19.694C19.694 37.3855 19.694 37.3855 19.694 37.3855H19.694C19.6939 37.3855 19.6939 37.3855 19.6939 37.3855H19.6939C19.6939 37.3855 19.6939 37.3855 19.6939 37.3855H19.6939C19.6939 37.3855 19.6939 37.3855 19.6939 37.3855H19.6939C19.6939 37.3855 19.6939 37.3855 19.6939 37.3855H19.6939C19.6939 37.3855 19.6939 37.3855 19.6939 37.3855H19.6939C19.6939 37.3855 19.6939 37.3855 19.6939 37.3855H19.6939C19.6939 37.3855 19.6939 37.3855 19.6939 37.3855H19.6939C19.6939 37.3855 19.6939 37.3855 19.6939 37.3855H19.6939C19.6939 37.3855 19.6939 37.3855 19.6939 37.3855H19.6939C19.6939 37.3855 19.6939 37.3855 19.6939 37.3855H19.6939C19.6939 37.3855 19.6939 37.3855 19.6939 37.3855H19.6939C19.6939 37.3855 19.6939 37.3855 19.6939 37.3855H19.6939C19.6939 37.3855 19.6939 37.3855 19.6939 37.3855H19.6939H19.6939C19.6939 37.3855 19.6939 37.3855 19.6939 37.3855H19.6939C19.6939 37.3855 19.6939 37.3855 19.6939 37.3855H19.6939C19.6939 37.3855 19.6939 37.3855 19.6939 37.3855H19.6939C19.6939 37.3855 19.6939 37.3855 19.6939 37.3855H19.6939C19.6938 37.3855 19.6938 37.3855 19.6938 37.3855H19.6938C19.6938 37.3855 19.6938 37.3855 19.6938 37.3855H19.6938C19.6938 37.3855 19.6938 37.3855 19.6938 37.3855H19.6938C19.6938 37.3855 19.6938 37.3855 19.6938 37.3855H19.6938C19.6938 37.3855 19.6938 37.3855 19.6938 37.3855H19.6938C19.6938 37.3855 19.6938 37.3855 19.6938 37.3855H19.6938C19.6938 37.3855 19.6938 37.3855 19.6938 37.3855H19.6938C19.6938 37.3855 19.6938 37.3855 19.6938 37.3855H19.6938C19.6938 37.3855 19.6938 37.3855 19.6938 37.3855H19.6938C19.6938 37.3855 19.6938 37.3855 19.6938 37.3855H19.6938C19.6938 37.3855 19.6938 37.3855 19.6938 37.3855H19.6938C19.6938 37.3855 19.6938 37.3855 19.6938 37.3855C19.6938 37.3855 19.6938 37.3855 19.6938 37.3855H19.6938C19.6938 37.3855 19.6938 37.3855 19.6938 37.3855H19.6938C19.6938 37.3855 19.6938 37.3855 19.6938 37.3855H19.6938C19.6938 37.3855 19.6938 37.3855 19.6938 37.3855H19.6938C19.6938 37.3855 19.6938 37.3855 19.6938 37.3855H19.6938C19.6938 37.3855 19.6938 37.3855 19.6938 37.3855H19.6938C19.6938 37.3855 19.6938 37.3855 19.6937 37.3855H19.6937C19.6937 37.3855 19.6937 37.3855 19.6937 37.3855H19.6937C19.6937 37.3855 19.6937 37.3855 19.6937 37.3855H19.6937C19.6937 37.3855 19.6937 37.3855 19.6937 37.3855H19.6937C19.6937 37.3855 19.6937 37.3855 19.6937 37.3855H19.6937C19.6937 37.3855 19.6937 37.3855 19.6937 37.3855H19.6937C19.6937 37.3855 19.6937 37.3855 19.6937 37.3855H19.6937C19.6937 37.3855 19.6937 37.3855 19.6937 37.3855H19.6937C19.6937 37.3855 19.6937 37.3855 19.6937 37.3855H19.6937C19.6937 37.3855 19.6937 37.3855 19.6937 37.3855H19.6937C19.6937 37.3855 19.6937 37.3855 19.6937 37.3855H19.6937H19.6937C19.6937 37.3855 19.6937 37.3855 19.6937 37.3855H19.6937C19.6937 37.3855 19.6937 37.3855 19.6937 37.3855H19.6937C19.6937 37.3855 19.6937 37.3855 19.6937 37.3855H19.6937C19.6937 37.3855 19.6937 37.3855 19.6937 37.3855H19.6937C19.6937 37.3855 19.6937 37.3855 19.6937 37.3855H19.6937C19.6937 37.3855 19.6937 37.3855 19.6937 37.3855H19.6937C19.6937 37.3855 19.6937 37.3855 19.6936 37.3855H19.6936C19.6936 37.3855 19.6936 37.3855 19.6936 37.3855H19.6936C19.6936 37.3855 19.6936 37.3855 19.6936 37.3855H19.6936C19.6936 37.3855 19.6936 37.3855 19.6936 37.3855H19.6936C19.6936 37.3855 19.6936 37.3855 19.6936 37.3855H19.6936C19.6936 37.3855 19.6936 37.3855 19.6936 37.3855H19.6936C19.6936 37.3855 19.6936 37.3855 19.6936 37.3855H19.6936C19.6936 37.3855 19.6936 37.3855 19.6936 37.3855H19.6936C19.6936 37.3855 19.6936 37.3855 19.6936 37.3855H19.6936C19.6936 37.3855 19.6936 37.3855 19.6936 37.3855H19.6936C19.6936 37.3855 19.6936 37.3855 19.6936 37.3855C19.6936 37.3855 19.6936 37.3855 19.6936 37.3855H19.6936C19.6936 37.3855 19.6936 37.3855 19.6936 37.3855H19.6936C19.6936 37.3855 19.6936 37.3855 19.6936 37.3855H19.6936C19.6936 37.3855 19.6936 37.3855 19.6936 37.3855H19.6936C19.6936 37.3855 19.6936 37.3855 19.6936 37.3855H19.6936C19.6936 37.3855 19.6936 37.3855 19.6936 37.3855H19.6936C19.6936 37.3855 19.6936 37.3855 19.6936 37.3855H19.6936C19.6936 37.3855 19.6936 37.3855 19.6936 37.3855H19.6935C19.6935 37.3855 19.6935 37.3855 19.6935 37.3855H19.6935C19.6935 37.3855 19.6935 37.3855 19.6935 37.3855H19.6935C19.6935 37.3855 19.6935 37.3855 19.6935 37.3855H19.6935C19.6935 37.3855 19.6935 37.3855 19.6935 37.3855H19.6935C19.6935 37.3855 19.6935 37.3855 19.6935 37.3855H19.6935C19.6935 37.3855 19.6935 37.3855 19.6935 37.3855H19.6935C19.6935 37.3855 19.6935 37.3855 19.6935 37.3855H19.6935C19.6935 37.3855 19.6935 37.3855 19.6935 37.3855H19.6935C19.6935 37.3855 19.6935 37.3855 19.6935 37.3855H19.6935H19.6935C19.6935 37.3855 19.6935 37.3855 19.6935 37.3855H19.6935C19.6935 37.3855 19.6935 37.3855 19.6935 37.3855H19.6935C19.6935 37.3855 19.6935 37.3855 19.6935 37.3855H19.6935C19.6935 37.3855 19.6935 37.3855 19.6935 37.3855H19.6935C19.6935 37.3855 19.6935 37.3855 19.6935 37.3855H19.6935C19.6935 37.3855 19.6935 37.3855 19.6935 37.3855H19.6935C19.6935 37.3855 19.6935 37.3855 19.6935 37.3855H19.6935C19.6935 37.3855 19.6935 37.3855 19.6935 37.3855H19.6934C19.6934 37.3855 19.6934 37.3855 19.6934 37.3855H19.6934C19.6934 37.3855 19.6934 37.3855 19.6934 37.3855H19.6934C19.6934 37.3855 19.6934 37.3855 19.6934 37.3855H19.6934C19.6934 37.3855 19.6934 37.3855 19.6934 37.3855H19.6934C19.6934 37.3855 19.6934 37.3855 19.6934 37.3855H19.6934C19.6934 37.3855 19.6934 37.3855 19.6934 37.3855H19.6934C19.6934 37.3855 19.6934 37.3855 19.6934 37.3855H19.6934C19.6934 37.3855 19.6934 37.3855 19.6934 37.3855H19.6934C19.6934 37.3855 19.6934 37.3855 19.6934 37.3855C19.6934 37.3855 19.6934 37.3855 19.6934 37.3855H19.6934C19.6934 37.3855 19.6934 37.3855 19.6934 37.3855H19.6934C19.6934 37.3855 19.6934 37.3855 19.6934 37.3855H19.6934C19.6934 37.3855 19.6934 37.3855 19.6934 37.3855H19.6934C19.6934 37.3855 19.6934 37.3855 19.6934 37.3855H19.6934C19.6934 37.3855 19.6934 37.3855 19.6934 37.3855H19.6934C19.6934 37.3855 19.6934 37.3855 19.6934 37.3855H19.6934C19.6934 37.3855 19.6934 37.3855 19.6934 37.3855H19.6934C19.6934 37.3855 19.6934 37.3855 19.6934 37.3855H19.6933C19.6933 37.3855 19.6933 37.3855 19.6933 37.3855H19.6933C19.6933 37.3855 19.6933 37.3855 19.6933 37.3855H19.6933C19.6933 37.3855 19.6933 37.3855 19.6933 37.3855H19.6933C19.6933 37.3855 19.6933 37.3855 19.6933 37.3855H19.6933C19.6933 37.3855 19.6933 37.3855 19.6933 37.3855H19.6933C19.6933 37.3855 19.6933 37.3855 19.6933 37.3855H19.6933C19.6933 37.3855 19.6933 37.3855 19.6933 37.3855H19.6933C19.6933 37.3855 19.6933 37.3855 19.6933 37.3855H19.6933H19.6933C19.6933 37.3855 19.6933 37.3855 19.6933 37.3855H19.6933C19.6933 37.3855 19.6933 37.3855 19.6933 37.3855H19.6933C19.6933 37.3855 19.6933 37.3855 19.6933 37.3855H19.6933C19.6933 37.3855 19.6933 37.3855 19.6933 37.3855H19.6933C19.6933 37.3855 19.6933 37.3855 19.6933 37.3855H19.6933C19.6933 37.3855 19.6933 37.3855 19.6933 37.3855H19.6933C19.6933 37.3855 19.6933 37.3855 19.6933 37.3855H19.6933C19.6933 37.3855 19.6933 37.3855 19.6933 37.3855H19.6933C19.6933 37.3855 19.6933 37.3855 19.6933 37.3855H19.6933C19.6932 37.3855 19.6932 37.3855 19.6932 37.3855H19.6932C19.6932 37.3855 19.6932 37.3855 19.6932 37.3855H19.6932C19.6932 37.3855 19.6932 37.3855 19.6932 37.3855H19.6932C19.6932 37.3855 19.6932 37.3855 19.6932 37.3855H19.6932C19.6932 37.3855 19.6932 37.3855 19.6932 37.3855H19.6932C19.6932 37.3855 19.6932 37.3855 19.6932 37.3855H19.6932C19.6932 37.3855 19.6932 37.3855 19.6932 37.3855H19.6932C19.6932 37.3855 19.6932 37.3855 19.6932 37.3855C19.6932 37.3855 19.6932 37.3855 19.6932 37.3855H19.6932C19.6932 37.3855 19.6932 37.3855 19.6932 37.3855H19.6932C19.6932 37.3855 19.6932 37.3855 19.6932 37.3855H19.6932C19.6932 37.3855 19.6932 37.3855 19.6932 37.3855H19.6932C19.6932 37.3855 19.6932 37.3855 19.6932 37.3855H19.6932C19.6932 37.3855 19.6932 37.3855 19.6932 37.3855H19.6932C19.6932 37.3855 19.6932 37.3855 19.6932 37.3855H19.6932C19.6932 37.3855 19.6932 37.3855 19.6932 37.3855H19.6932C19.6932 37.3855 19.6932 37.3855 19.6932 37.3855H19.6932C19.6932 37.3855 19.6932 37.3855 19.6932 37.3855H19.6932C19.6931 37.3855 19.6931 37.3855 19.6931 37.3855H19.6931C19.6931 37.3855 19.6931 37.3855 19.6931 37.3855H19.6931C19.6931 37.3855 19.6931 37.3855 19.6931 37.3855H19.6931C19.6931 37.3855 19.6931 37.3855 19.6931 37.3855H19.6931C19.6931 37.3855 19.6931 37.3855 19.6931 37.3855H19.6931C19.6931 37.3855 19.6931 37.3855 19.6931 37.3855H19.6931H19.6931C19.6931 37.3855 19.6931 37.3855 19.6931 37.3855H19.6931C19.6931 37.3855 19.6931 37.3855 19.6931 37.3855H19.6931C19.6931 37.3855 19.6931 37.3855 19.6931 37.3855H19.6931C19.6931 37.3855 19.6931 37.3855 19.6931 37.3855H19.6931C19.6931 37.3855 19.6931 37.3855 19.6931 37.3855H19.6931C19.6931 37.3855 19.6931 37.3855 19.6931 37.3855H19.6931C19.6931 37.3855 19.6931 37.3855 19.6931 37.3855H19.6931C19.6931 37.3855 19.6931 37.3855 19.6931 37.3855H19.6931C19.6931 37.3855 19.6931 37.3855 19.6931 37.3855H19.6931C19.6931 37.3855 19.6931 37.3855 19.6931 37.3855H19.6931C19.6931 37.3855 19.6931 37.3855 19.6931 37.3855H19.6931C19.6931 37.3855 19.6931 37.3855 19.693 37.3855H19.693C19.693 37.3855 19.693 37.3855 19.693 37.3855H19.693C19.693 37.3855 19.693 37.3855 19.693 37.3855H19.693C19.693 37.3855 19.693 37.3855 19.693 37.3855H19.693C19.693 37.3855 19.693 37.3855 19.693 37.3855C19.693 37.3855 19.693 37.3855 19.693 37.3855H19.693C19.693 37.3855 19.693 37.3855 19.693 37.3855H19.693C19.693 37.3855 19.693 37.3855 19.693 37.3855H19.693C19.693 37.3855 19.693 37.3855 19.693 37.3855H19.693C19.693 37.3855 19.693 37.3855 19.693 37.3855H19.693C19.693 37.3855 19.693 37.3855 19.693 37.3855H19.693C19.693 37.3855 19.693 37.3855 19.693 37.3855H19.693C19.693 37.3855 19.693 37.3855 19.693 37.3855H19.693C19.693 37.3855 19.693 37.3855 19.693 37.3855H19.693C19.693 37.3855 19.693 37.3855 19.693 37.3855H19.693C19.693 37.3855 19.693 37.3855 19.693 37.3855H19.693C19.693 37.3855 19.693 37.3855 19.693 37.3855H19.693C19.693 37.3855 19.693 37.3855 19.693 37.3855H19.693C19.693 37.3855 19.693 37.3855 19.6929 37.3855H19.6929C19.6929 37.3855 19.6929 37.3855 19.6929 37.3855H19.6929C19.6929 37.3855 19.6929 37.3855 19.6929 37.3855C19.6929 37.3855 19.6929 37.3855 19.6929 37.3855H19.6929C19.6929 37.3855 19.6929 37.3855 19.6929 37.3855H19.6929C19.6929 37.3855 19.6929 37.3855 19.6929 37.3855H19.6929C19.6929 37.3855 19.6929 37.3855 19.6929 37.3855H19.6929C19.6929 37.3855 19.6929 37.3855 19.6929 37.3855H19.6929C19.6929 37.3855 19.6929 37.3855 19.6929 37.3855H19.6929C19.6929 37.3855 19.6929 37.3855 19.6929 37.3855H19.6929C19.6929 37.3855 19.6929 37.3855 19.6929 37.3855H19.6929C19.6929 37.3855 19.6929 37.3855 19.6929 37.3855H19.6929C19.6929 37.3855 19.6929 37.3855 19.6929 37.3855H19.6929C19.6929 37.3855 19.6929 37.3855 19.6929 37.3855H19.6929C19.6929 37.3855 19.6929 37.3855 19.6929 37.3855H19.6929C19.6929 37.3855 19.6929 37.3855 19.6929 37.3855H19.6929C19.6929 37.3855 19.6929 37.3855 19.6929 37.3855H19.6929C19.6929 37.3855 19.6929 37.3855 19.6929 37.3855H19.6929H19.6929C19.6929 37.3855 19.6929 37.3855 19.6928 37.3855H19.6928C19.6928 37.3855 19.6928 37.3855 19.6928 37.3855H19.6928C19.6928 37.3855 19.6928 37.3855 19.6928 37.3855H19.6928C19.6928 37.3855 19.6928 37.3855 19.6928 37.3855H19.6928C19.6928 37.3855 19.6928 37.3855 19.6928 37.3855H19.6928C19.6928 37.3855 19.6928 37.3855 19.6928 37.3855H19.6928C19.6928 37.3855 19.6928 37.3855 19.6928 37.3855H19.6928C19.6928 37.3855 19.6928 37.3855 19.6928 37.3855H19.6928C19.6928 37.3855 19.6928 37.3855 19.6928 37.3855H19.6928C19.6928 37.3855 19.6928 37.3855 19.6928 37.3855H19.6928C19.6928 37.3855 19.6928 37.3855 19.6928 37.3855H19.6928C19.6928 37.3855 19.6928 37.3855 19.6928 37.3855H19.6928C19.6928 37.3855 19.6928 37.3855 19.6928 37.3855H19.6928C19.6928 37.3855 19.6928 37.3855 19.6928 37.3855H19.6928V39.3855ZM19.6925 39.3855H19.6928V37.3855H19.6925V39.3855ZM20.6925 57.8264V38.3855H18.6925V57.8264H20.6925ZM17.1971 56.3309C17.1971 57.7091 18.3143 58.8264 19.6925 58.8264V56.8264C19.4189 56.8264 19.1971 56.6045 19.1971 56.3309H17.1971ZM7.25958 35.41C11.6304 40.1969 17.1971 46.3277 17.1971 56.3309H19.1971C19.1971 45.4836 13.0991 38.8393 8.73653 34.0614L7.25958 35.41ZM3.9421 31.5145C4.82479 32.7456 6.00956 34.041 7.25958 35.41L8.73653 34.0614C7.46188 32.6654 6.36692 31.4641 5.56745 30.3491L3.9421 31.5145ZM0 19.6928C0 24.136 1.47269 28.2381 3.95615 31.5336L5.5534 30.33C3.32228 27.3693 2 23.6869 2 19.6928H0ZM19.6928 0C8.81675 0 0 8.81675 0 19.6928H2C2 9.92132 9.92132 2 19.6928 2V0ZM39.3855 19.6928C39.3855 8.81675 30.5688 0 19.6928 0V2C29.4642 2 37.3855 9.92132 37.3855 19.6928H39.3855ZM35.4477 31.5094C37.9201 28.2179 39.3855 24.125 39.3855 19.6928H37.3855C37.3855 23.6771 36.0697 27.3512 33.8486 30.3082L35.4477 31.5094ZM34.6484 29.9088H34.6481V31.9088H34.6484V29.9088ZM32.1271 35.41C33.3852 34.0322 34.5774 32.7287 35.4622 31.49L33.8347 30.3275C33.0342 31.4482 31.9334 32.6561 30.6502 34.0614L32.1271 35.41ZM22.1896 56.3309C22.1896 46.3277 27.7563 40.1969 32.1271 35.41L30.6502 34.0614C26.2876 38.8393 20.1896 45.4836 20.1896 56.3309H22.1896ZM19.6942 58.8264C21.0724 58.8264 22.1896 57.7091 22.1896 56.3309H20.1896C20.1896 56.6045 19.9678 56.8264 19.6942 56.8264V58.8264ZM18.6942 38.3855V57.8264H20.6942V38.3855H18.6942Z" fill="white" mask="url(#path-2-outside-1_815_33105)"/>
<circle cx="20" cy="19" r="8.5" fill="#929DA9" stroke="white"/>
<defs>
<filter id="filter0_f_815_33105" x="10.9629" y="52.834" width="17.459" height="11.4775" filterUnits="userSpaceOnUse" color-interpolation-filters="sRGB">
<feFlood flood-opacity="0" result="BackgroundImageFix"/>
<feBlend mode="normal" in="SourceGraphic" in2="BackgroundImageFix" result="shape"/>
<feGaussianBlur stdDeviation="1" result="effect1_foregroundBlur_815_33105"/>
</filter>
</defs>
</svg>
